<?xml version="1.0" standalone="no"?>
<!DOCTYPE svg PUBLIC "-//W3C//DTD SVG 20010904//EN"
 "http://www.w3.org/TR/2001/REC-SVG-20010904/DTD/svg10.dtd">
<svg version="1.0" xmlns="http://www.w3.org/2000/svg"
 width="2000.000000pt" height="2000.000000pt" viewBox="0 0 2000.000000 2000.000000"
 preserveAspectRatio="xMidYMid meet">
<metadata>
Created by potrace 1.14, written by Peter Selinger 2001-2017
</metadata>
<g transform="translate(0.000000,2000.000000) scale(0.100000,-0.100000)"
fill="#000000" stroke="none">
<path d="M6934 16936 c-1683 -1685 -3064 -3067 -3067 -3073 -5 -7 2001 -2027
2221 -2236 l30 -29 1941 1941 1941 1941 1943 -1943 1944 -1944 1126 1127 c620
620 1127 1130 1127 1133 0 7 -6138 6148 -6143 6146 -1 0 -1379 -1379 -3063
-3063z"/>
<path d="M8850 11145 l-1145 -1145 1148 -1148 1147 -1147 1147 1147 1148 1148
-1145 1145 c-630 630 -1147 1145 -1150 1145 -3 0 -520 -515 -1150 -1145z"/>
<path d="M1128 11129 l-1128 -1129 1125 -1125 c619 -619 1129 -1125 1135
-1125 6 0 516 506 1135 1125 l1125 1125 -1130 1130 c-621 622 -1131 1130
-1132 1129 -2 0 -510 -509 -1130 -1130z"/>
<path d="M16610 11129 l-1130 -1130 1130 -1130 1130 -1130 1130 1130 1131
1130 -1131 1130 -1130 1130 -1130 -1130z"/>
<path d="M4982 7276 c-617 -616 -1122 -1124 -1122 -1129 0 -4 1381 -1388 3070
-3077 l3070 -3070 3070 3070 c1688 1688 3070 3073 3070 3077 0 10 -2244 2253
-2254 2253 -3 0 -877 -871 -1941 -1935 -1064 -1064 -1939 -1935 -1945 -1935
-6 0 -881 871 -1945 1935 -1064 1064 -1938 1934 -1942 1934 -5 -1 -513 -506
-1131 -1123z"/>
</g>
</svg>
